HIERARCHY
ROOT Hips
{
  OFFSET 0 0 0
  CHANNELS 6 Xposition Yposition Zposition Zrotation Yrotation Xrotation
  JOINT LeftThigh
  {
    OFFSET 8.409438 0 -5.917753
    CHANNELS 3 Zrotation Yrotation Xrotation
    JOINT LeftLeg
    {
      OFFSET 0 0 -42.358652
      CHANNELS 3 Zrotation Yrotation Xrotation
      JOINT LeftFoot
      {
        OFFSET 0 0 -39.357303
        CHANNELS 3 Zrotation Yrotation Xrotation
      }
    }
  }
  JOINT RightThigh
  {
    OFFSET -8.409438 0 -5.917753
    CHANNELS 3 Zrotation Yrotation Xrotation
    JOINT RightLeg
    {
      OFFSET 0 0 -42.358652
      CHANNELS 3 Zrotation Yrotation Xrotation
      JOINT RightFoot
      {
        OFFSET 0 0 -39.357303
        CHANNELS 3 Zrotation Yrotation Xrotation
      }
    }
  }
  JOINT SpineLow
  {
    OFFSET 0 0 4.719101
    CHANNELS 3 Zrotation Yrotation Xrotation
    JOINT SpineMid
    {
      OFFSET 0 0 12.899191
      CHANNELS 3 Zrotation Yrotation Xrotation
      JOINT Chest
      {
        OFFSET 0 0 12.899191
        CHANNELS 3 Zrotation Yrotation Xrotation
        JOINT LeftShoulder
        {
          OFFSET 7.550562 1.41573 9.438202
          CHANNELS 3 Zrotation Yrotation Xrotation
          JOINT LeftArm
          {
            OFFSET 9.155056 0 4.247191
            CHANNELS 3 Zrotation Yrotation Xrotation
            JOINT LeftForearm
            {
              OFFSET 0 0 25.771955
              CHANNELS 3 Zrotation Yrotation Xrotation
              JOINT LeftHand
              {
                OFFSET 0 0 25.197169
                CHANNELS 3 Zrotation Yrotation Xrotation
              }
            }
          }
        }
        JOINT RightShoulder
        {
          OFFSET -7.550562 1.41573 9.438202
          CHANNELS 3 Zrotation Yrotation Xrotation
          JOINT RightArm
          {
            OFFSET -9.155056 0 4.247191
            CHANNELS 3 Zrotation Yrotation Xrotation
            JOINT RightForearm
            {
              OFFSET 0 0 -25.771955
              CHANNELS 3 Zrotation Yrotation Xrotation
              JOINT RightHand
              {
                OFFSET 0 0 -25.197169
                CHANNELS 3 Zrotation Yrotation Xrotation
              }
            }
          }
        }
        JOINT Neck
        {
          OFFSET 0 0 15.101124
          CHANNELS 3 Zrotation Yrotation Xrotation
          JOINT Head
          {
            OFFSET 0 0 11.325843
            CHANNELS 3 Zrotation Yrotation Xrotation
            End Site
            {
              OFFSET 0 0 14.157303
            }
          }
        }
      }
    }
  }
}
MOTION
Frames: 10
Frame Time: 0.01
0.0  101.685394  0.0  -0.531918  6.052798  -100.276425  35.276209  -23.91689  -3.911868  -12.156165  12.509076  34.990222  7.949975  4.65357  4.052246  -16.4668  14.667478  -8.915859  10.846711  2.75812  31.575881  2.705664  6.000703  -2.749336  -2.053948  -1.015058  1.725514  -5.686178  -2.624125  4.801152  -5.686178  -2.624125  4.801152  -14.617752  30.629896  4.935619  88.771653  68.374522  162.689565  -28.391789  -25.986831  107.838175  50.958866  22.809031  -26.647522  16.425045  -4.74662  22.789624  67.87044  56.459573  -13.105101  -18.753638  -16.998527  -99.875879  72.437688  6.395385  18.772633  10.11942  1.266273  -4.360404  7.598747  0.877834  -3.292212  
0.0  101.685394  0.0  -0.950652  9.976013  -99.982109  33.912823  -23.870204  -4.960375  -13.541431  13.078122  34.515085  7.349622  4.549232  3.841667  -18.033347  14.925934  -8.076198  9.596582  2.879843  30.959635  1.988715  6.068754  -2.761021  -2.37883  -1.012109  1.577702  -6.568312  -2.606938  4.409346  -6.568312  -2.606938  4.409346  -15.379715  30.766204  4.931514  89.322553  67.915093  164.228087  -27.95542  -27.555139  106.870445  49.961933  22.23808  -24.750815  16.506713  -4.657364  22.619824  67.559909  56.728208  -12.464795  -18.614444  -17.997326  -101.470461  72.808021  4.875206  18.454675  9.448137  0.969026  -4.094691  7.092802  0.663682  -3.086803  
0.0  101.685394  0.0  -1.368102  14.248629  -99.792815  32.373266  -23.877309  -5.882685  -15.068666  13.707182  33.811788  6.960828  4.457683  3.755342  -19.540806  15.272373  -7.088988  8.068388  2.915478  30.289393  1.249215  6.133315  -2.747151  -2.715242  -0.973725  1.389965  -7.478315  -2.500745  3.904824  -7.478315  -2.500745  3.904824  -15.835219  30.950323  5.175318  89.463186  67.151631  165.54991  -27.4706  -28.834657  105.800067  49.227436  21.404341  -22.759734  16.575683  -4.745993  22.613749  67.384581  56.936984  -11.614602  -18.572862  -18.930497  -103.006161  73.238162  3.182097  18.012728  8.634173  0.523933  -3.661143  6.478998  0.341315  -2.753892  
0.0  101.685394  0.0  -1.749779  18.69822  -99.698892  30.749758  -23.876039  -6.649748  -16.666025  14.318191  32.904187  6.422667  4.306747  3.547237  -20.935797  15.71153  -6.024149  6.285061  2.87044  29.582816  0.49283  6.162103  -2.715917  -3.080206  -0.933079  1.158492  -8.465372  -2.397616  3.280802  -8.465372  -2.397616  3.280802  -15.719676  31.441595  5.518787  89.533518  65.927919  167.030096  -26.661249  -29.915713  104.607481  48.794533  20.3485  -21.107219  16.81501  -4.606342  22.960741  66.976551  57.126422  -10.910512  -18.296333  -19.513047  -104.780661  73.593011  1.287026  17.646233  7.803874  0.143431  -3.049115  5.853791  0.06865  -2.28911  
0.0  101.685394  0.0  -2.083338  23.157046  -99.668215  29.189156  -23.89069  -7.262881  -18.265356  14.903588  31.807891  6.038604  4.169071  3.446892  -22.161873  16.130369  -4.933777  4.293375  2.840763  28.848105  -0.098843  6.190985  -2.656036  -3.442347  -0.875514  0.990638  -9.446751  -2.246245  2.826997  -9.446749  -2.246245  2.826996  -15.481001  31.663353  4.990521  90.100582  63.968994  169.200275  -25.577364  -30.80495  103.286517  48.623625  19.253598  -20.094762  17.309631  -4.209678  22.926157  66.23571  57.335919  -10.422094  -17.957446  -19.978559  -106.579448  74.064979  -0.78217  17.017468  7.071697  -0.249964  -2.600658  5.302815  -0.217607  -1.947907  
0.0  101.685394  0.0  -2.390689  27.445477  -99.817469  27.857059  -23.966702  -7.590988  -19.79279  15.325622  30.596009  5.521497  3.999842  3.224284  -23.144209  16.525151  -3.663999  2.171777  2.836791  27.99  -0.684123  6.163307  -2.596991  -3.749996  -0.771783  0.932536  -10.281054  -1.959017  2.662173  -10.281054  -1.959017  2.662173  -15.185484  31.100751  3.722259  91.455861  61.358757  172.338633  -24.588001  -30.04281  101.839136  49.981203  18.295312  -19.630901  18.023356  -3.796077  22.461379  64.872178  57.88972  -10.342929  -17.294741  -20.569533  -108.695149  74.828796  -3.477999  16.203061  6.116826  -0.733503  -2.544427  4.584598  -0.575675  -1.901178  
0.0  101.685394  0.0  -2.696474  31.512085  -100.143845  26.76486  -24.101859  -7.554195  -21.263187  15.511521  29.204956  4.879469  3.871596  2.966537  -23.983273  16.855676  -2.195385  0.077674  2.930572  26.959253  -1.067772  6.118959  -2.541762  -3.925352  -0.612144  0.940056  -10.75325  -1.515572  2.661395  -10.753249  -1.515572  2.661394  -14.994439  30.012921  2.439981  93.099114  58.478411  175.51416  -24.000198  -28.243172  101.04751  51.580398  17.973526  -20.289898  18.466063  -3.499329  21.871197  62.554155  58.97336  -10.959057  -16.765725  -21.753512  -111.041586  76.490298  -7.474879  14.311139  4.772515  -1.46645  -2.63929  3.572936  -1.120553  -1.968048  
0.0  101.685394  0.0  -3.00591  35.205266  -100.686746  25.89818  -24.412095  -7.035023  -22.566621  15.437858  27.512665  4.167843  3.775679  2.726452  -24.461564  17.04114  -0.498944  -2.015504  3.226284  25.830822  -1.286531  5.997429  -2.551632  -4.058993  -0.501639  0.983118  -11.114287  -1.201811  2.76288  -11.114287  -1.201811  2.762879  -14.147656  29.053203  1.31484  95.227895  55.544132  178.503161  -26.97158  -19.500607  98.921634  60.05079  17.104982  -16.356542  19.22876  -2.760665  21.335399  59.132135  60.545878  -12.53802  -15.616199  -22.966052  -114.039445  78.88632  -12.738794  11.84816  3.483251  -1.905515  -2.740948  2.603711  -1.444846  -2.044736  
0.0  101.685394  0.0  -3.17596  38.492112  -101.375758  25.168671  -24.872932  -6.117966  -23.584689  15.28243  25.664085  3.108939  3.632777  2.484455  -24.522488  17.196276  1.410272  -3.970135  3.625836  24.589383  -1.263982  5.840809  -2.558966  -4.030043  -0.551391  1.120645  -11.039919  -1.31562  3.145502  -11.039919  -1.31562  3.145502  -13.822842  28.81258  -0.220408  99.089948  52.611729  -177.754666  -26.355215  -9.129777  98.73683  68.06225  16.163064  -16.54076  19.503388  -0.855538  20.575126  53.843899  62.629505  -15.630238  -14.580564  -22.827203  -115.93643  82.023064  -16.97719  7.752485  1.904089  -1.702714  -3.162499  1.419194  -1.286943  -2.366421  
0.0  101.685394  0.0  -3.136992  41.324774  -101.783928  24.374234  -25.084641  -5.154819  -24.145112  15.000076  23.87798  2.210126  3.397503  2.374935  -24.512943  17.219533  3.072025  -5.708542  4.034569  23.214172  -1.73006  5.591434  -2.559643  -3.866313  -0.518406  1.164557  -10.591468  -1.226642  3.25694  -10.591468  -1.226642  3.25694  -13.018558  28.228204  -0.677911  104.092797  50.234717  -173.802859  -23.157977  -1.167275  99.470013  72.706599  15.068684  -17.874067  19.228294  0.563217  20.040688  46.473909  64.87379  -20.449368  -14.481504  -21.691591  -116.731805  85.569622  -19.331101  1.797795  0.230027  -1.66626  -3.261146  0.16362  -1.250965  -2.44506  
